<?xml version="1.0" encoding="UTF-8" standalone="no"?>
<!DOCTYPE svg PUBLIC "-//W3C//DTD SVG 1.1//EN" "http://www.w3.org/Graphics/SVG/1.1/DTD/svg11.dtd">
<svg xmlns="http://www.w3.org/2000/svg" version="1.1" viewBox="0.00 0.00 188.00 188.00">
<g stroke-width="2.00" fill="none" stroke-linecap="butt">
<path stroke="#559d85" vector-effect="non-scaling-stroke" d="
  M 137.46 49.75
  Q 124.87 52.74 117.34 58.83
  Q 110.22 64.59 104.66 75.23"
/>
<path stroke="#6bb96c" vector-effect="non-scaling-stroke" d="
  M 104.66 75.23
  Q 104.27 75.10 103.98 75.26
  A 0.75 0.74 70.3 0 0 103.60 76.08
  Q 103.73 76.71 103.08 76.63
  Q 96.38 75.81 89.11 76.13
  Q 87.51 76.21 86.00 76.48
  Q 84.26 76.79 82.26 76.40
  Q 81.78 76.30 81.33 76.52
  Q 79.58 77.38 78.00 76.30"
/>
<path stroke="#605bb1" vector-effect="non-scaling-stroke" d="
  M 125.08 60.71
  L 119.03 65.88"
/>
<path stroke="#928686" vector-effect="non-scaling-stroke" d="
  M 117.38 68.49
  Q 112.05 74.49 110.40 82.25
  Q 108.95 89.01 108.18 95.87
  C 107.35 103.24 106.47 108.80 105.53 115.26"
/>
<path stroke="#8f5497" vector-effect="non-scaling-stroke" d="
  M 105.53 115.26
  L 101.28 131.49"
/>
<path stroke="#3361af" vector-effect="non-scaling-stroke" d="
  M 101.28 131.49
  Q 100.57 131.52 100.42 131.98
  Q 100.16 132.79 100.25 131.95
  Q 100.26 131.79 100.09 131.76
  Q 99.78 131.72 99.67 131.98
  Q 99.65 132.03 99.67 132.08
  Q 99.89 132.72 99.20 132.59
  Q 97.61 132.31 96.11 131.67
  Q 89.93 129.05 83.29 128.19"
/>
<path stroke="#4b94a5" vector-effect="non-scaling-stroke" d="
  M 83.29 128.19
  Q 88.23 118.11 89.90 113.89
  Q 92.92 106.30 99.09 88.68
  C 100.74 83.96 102.65 79.64 104.66 75.23"
/>
<path stroke="#497d96" vector-effect="non-scaling-stroke" d="
  M 83.29 128.19
  L 79.94 134.19"
/>
<path stroke="#58a8aa" vector-effect="non-scaling-stroke" d="
  M 79.94 134.19
  Q 77.43 134.15 76.13 135.14
  Q 73.82 136.88 71.76 137.08
  Q 67.11 137.51 62.88 138.12
  Q 62.65 138.16 62.58 137.93
  Q 62.55 137.80 62.43 137.74
  Q 62.25 137.65 62.01 137.63
  Q 58.73 137.42 55.55 138.05"
/>
<path stroke="#7b389f" vector-effect="non-scaling-stroke" d="
  M 160.91 133.52
  Q 159.44 132.41 158.04 131.45
  Q 156.52 130.41 155.30 129.20
  Q 154.00 127.92 152.69 126.99
  Q 151.18 125.92 149.01 125.48
  Q 147.01 125.07 145.02 124.45
  Q 142.91 123.80 141.00 122.88
  Q 137.78 121.32 134.72 120.35
  Q 134.54 120.29 134.46 120.46
  Q 134.44 120.51 134.45 120.56
  Q 134.54 121.02 134.25 120.66
  Q 133.50 119.74 133.77 118.62
  Q 133.88 118.18 133.44 118.09
  L 132.84 117.96"
/>
<path stroke="#bc6a79" vector-effect="non-scaling-stroke" d="
  M 111.21 106.84
  L 112.50 94.44"
/>
<path stroke="#aa3185" vector-effect="non-scaling-stroke" d="
  M 103.60 141.67
  Q 100.91 147.74 96.88 153.63
  Q 95.68 155.37 91.62 159.34"
/>
<path stroke="#8c3e88" vector-effect="non-scaling-stroke" d="
  M 57.77 169.87
  Q 60.67 168.69 63.82 168.23
  Q 66.29 167.87 68.67 167.35
  C 74.57 166.04 80.60 161.91 85.17 157.99
  C 92.47 151.75 98.03 140.85 101.28 131.49"
/>
<path stroke="#4075b4" vector-effect="non-scaling-stroke" d="
  M 17.91 157.43
  Q 21.26 157.56 24.52 158.73
  C 26.23 159.34 27.89 159.52 29.56 160.16
  Q 31.43 160.87 33.36 161.15
  Q 52.58 163.89 67.26 150.23
  Q 75.11 142.92 79.94 134.19"
/>
<path stroke="#eb635f" vector-effect="non-scaling-stroke" d="
  M 109.16 119.44
  Q 105.25 118.74 105.53 115.26"
/>
<path stroke="#b6d436" vector-effect="non-scaling-stroke" d="
  M 115.78 46.30
  A 4.10 4.10 0.0 0 0 111.68 42.20
  A 4.10 4.10 0.0 0 0 107.58 46.30
  A 4.10 4.10 0.0 0 0 111.68 50.40
  A 4.10 4.10 0.0 0 0 115.78 46.30"
/>
</g>
<path fill="#adda23" d="
  M 89.18 22.87
  C 86.92 21.09 84.49 17.33 87.06 14.70
  C 88.37 13.36 90.26 13.42 91.70 14.52
  Q 97.57 18.99 98.82 26.76
  A 0.48 0.48 0.0 0 1 98.22 27.29
  Q 92.88 25.79 89.18 22.87
  Z"
/>
<path fill="#adda23" d="
  M 87.00 30.72
  Q 88.96 33.06 86.03 32.21
  C 84.57 31.78 83.19 31.20 81.62 31.28
  Q 78.03 31.46 74.18 31.60
  C 67.52 31.83 68.60 23.77 75.08 24.26
  Q 82.04 24.79 87.00 30.72
  Z"
/>
<path fill="#74c24c" d="
  M 137.46 49.75
  Q 124.87 52.74 117.34 58.83
  Q 110.22 64.59 104.66 75.23
  Q 104.27 75.10 103.98 75.26
  A 0.75 0.74 70.3 0 0 103.60 76.08
  Q 103.73 76.71 103.08 76.63
  Q 96.38 75.81 89.11 76.13
  Q 87.51 76.21 86.00 76.48
  Q 84.26 76.79 82.26 76.40
  Q 81.78 76.30 81.33 76.52
  Q 79.58 77.38 78.00 76.30
  C 82.06 62.39 88.88 47.86 101.36 39.96
  Q 109.90 34.56 120.08 37.04
  Q 128.67 39.13 131.45 47.88
  A 1.44 1.43 -3.4 0 0 132.55 48.85
  L 137.46 49.75
  Z
  M 115.78 46.30
  A 4.10 4.10 0.0 0 0 111.68 42.20
  A 4.10 4.10 0.0 0 0 107.58 46.30
  A 4.10 4.10 0.0 0 0 111.68 50.40
  A 4.10 4.10 0.0 0 0 115.78 46.30
  Z"
/>
<path fill="#adda23" d="
  M 79.86 41.01
  C 76.70 42.48 74.29 44.63 72.18 47.53
  Q 70.22 50.21 67.16 49.36
  Q 66.72 49.24 66.47 48.86
  C 63.94 45.11 66.94 41.38 70.47 39.95
  Q 74.97 38.14 79.56 38.87
  Q 83.20 39.45 79.86 41.01
  Z"
/>
<circle fill="#f7e620" cx="111.68" cy="46.30" r="4.10"/>
<path fill="#3577bd" d="
  M 137.46 49.75
  Q 139.99 49.39 142.77 50.81
  Q 143.58 51.22 142.70 51.42
  C 141.93 51.59 141.57 52.15 140.69 52.33
  Q 131.76 54.16 125.08 60.71
  L 119.03 65.88
  Q 117.83 66.95 117.38 68.49
  Q 112.05 74.49 110.40 82.25
  Q 108.95 89.01 108.18 95.87
  C 107.35 103.24 106.47 108.80 105.53 115.26
  L 101.28 131.49
  Q 100.57 131.52 100.42 131.98
  Q 100.16 132.79 100.25 131.95
  Q 100.26 131.79 100.09 131.76
  Q 99.78 131.72 99.67 131.98
  Q 99.65 132.03 99.67 132.08
  Q 99.89 132.72 99.20 132.59
  Q 97.61 132.31 96.11 131.67
  Q 89.93 129.05 83.29 128.19
  Q 88.23 118.11 89.90 113.89
  Q 92.92 106.30 99.09 88.68
  C 100.74 83.96 102.65 79.64 104.66 75.23
  Q 110.22 64.59 117.34 58.83
  Q 124.87 52.74 137.46 49.75
  Z"
/>
<path fill="#8a3fa4" d="
  M 125.08 60.71
  Q 131.36 66.26 139.38 69.87
  Q 146.94 73.28 147.96 74.00
  C 153.46 77.88 157.23 84.97 154.18 91.77
  C 151.25 98.27 144.37 102.47 137.66 103.73
  Q 136.17 104.01 137.65 104.35
  Q 140.67 105.05 144.37 105.72
  C 157.55 108.11 162.66 121.44 160.91 133.52
  Q 159.44 132.41 158.04 131.45
  Q 156.52 130.41 155.30 129.20
  Q 154.00 127.92 152.69 126.99
  Q 151.18 125.92 149.01 125.48
  Q 147.01 125.07 145.02 124.45
  Q 142.91 123.80 141.00 122.88
  Q 137.78 121.32 134.72 120.35
  Q 134.54 120.29 134.46 120.46
  Q 134.44 120.51 134.45 120.56
  Q 134.54 121.02 134.25 120.66
  Q 133.50 119.74 133.77 118.62
  Q 133.88 118.18 133.44 118.09
  L 132.84 117.96
  Q 129.46 111.61 122.57 109.36
  Q 117.13 107.59 111.21 106.84
  L 112.50 94.44
  Q 115.85 94.27 120.25 93.31
  C 125.03 92.26 130.06 88.57 129.95 83.28
  Q 129.86 79.08 127.94 76.77
  Q 123.36 71.28 119.03 65.88
  L 125.08 60.71
  Z"
/>
<path fill="#ee944e" d="
  M 117.38 68.49
  Q 112.52 81.00 112.50 94.44
  L 111.21 106.84
  L 109.16 119.44
  Q 105.25 118.74 105.53 115.26
  C 106.47 108.80 107.35 103.24 108.18 95.87
  Q 108.95 89.01 110.40 82.25
  Q 112.05 74.49 117.38 68.49
  Z"
/>
<path fill="#61b08c" d="
  M 104.66 75.23
  C 102.65 79.64 100.74 83.96 99.09 88.68
  Q 92.92 106.30 89.90 113.89
  Q 88.23 118.11 83.29 128.19
  L 79.94 134.19
  Q 77.43 134.15 76.13 135.14
  Q 73.82 136.88 71.76 137.08
  Q 67.11 137.51 62.88 138.12
  Q 62.65 138.16 62.58 137.93
  Q 62.55 137.80 62.43 137.74
  Q 62.25 137.65 62.01 137.63
  Q 58.73 137.42 55.55 138.05
  Q 60.55 131.85 62.61 128.07
  Q 67.04 119.97 69.73 108.56
  Q 73.56 92.31 78.00 76.30
  Q 79.58 77.38 81.33 76.52
  Q 81.78 76.30 82.26 76.40
  Q 84.26 76.79 86.00 76.48
  Q 87.51 76.21 89.11 76.13
  Q 96.38 75.81 103.08 76.63
  Q 103.73 76.71 103.60 76.08
  A 0.75 0.74 70.3 0 1 103.98 75.26
  Q 104.27 75.10 104.66 75.23
  Z"
/>
<path fill="#e83170" d="
  M 105.53 115.26
  Q 105.25 118.74 109.16 119.44
  Q 107.31 130.63 103.60 141.67
  Q 100.91 147.74 96.88 153.63
  Q 95.68 155.37 91.62 159.34
  Q 90.05 160.10 88.01 161.46
  Q 74.61 170.37 57.77 169.87
  Q 60.67 168.69 63.82 168.23
  Q 66.29 167.87 68.67 167.35
  C 74.57 166.04 80.60 161.91 85.17 157.99
  C 92.47 151.75 98.03 140.85 101.28 131.49
  L 105.53 115.26
  Z"
/>
<path fill="#6c3199" d="
  M 132.84 117.96
  L 133.44 118.09
  Q 133.88 118.18 133.77 118.62
  Q 133.50 119.74 134.25 120.66
  Q 134.54 121.02 134.45 120.56
  Q 134.44 120.51 134.46 120.46
  Q 134.54 120.29 134.72 120.35
  Q 137.78 121.32 141.00 122.88
  Q 142.91 123.80 145.02 124.45
  Q 147.01 125.07 149.01 125.48
  Q 151.18 125.92 152.69 126.99
  Q 154.00 127.92 155.30 129.20
  Q 156.52 130.41 158.04 131.45
  Q 159.44 132.41 160.91 133.52
  Q 159.14 144.46 150.64 151.65
  Q 146.17 155.44 139.50 158.22
  Q 130.24 162.08 116.00 162.15
  Q 106.18 162.19 91.62 159.34
  Q 95.68 155.37 96.88 153.63
  Q 100.91 147.74 103.60 141.67
  Q 109.27 141.99 114.50 141.42
  C 126.43 140.12 137.97 131.47 132.84 117.96
  Z"
/>
<path fill="#304aa0" d="
  M 101.28 131.49
  C 98.03 140.85 92.47 151.75 85.17 157.99
  C 80.60 161.91 74.57 166.04 68.67 167.35
  Q 66.29 167.87 63.82 168.23
  Q 60.67 168.69 57.77 169.87
  Q 47.76 169.68 44.75 168.86
  Q 35.98 166.50 29.41 163.85
  Q 23.93 161.63 17.91 157.43
  Q 21.26 157.56 24.52 158.73
  C 26.23 159.34 27.89 159.52 29.56 160.16
  Q 31.43 160.87 33.36 161.15
  Q 52.58 163.89 67.26 150.23
  Q 75.11 142.92 79.94 134.19
  L 83.29 128.19
  Q 89.93 129.05 96.11 131.67
  Q 97.61 132.31 99.20 132.59
  Q 99.89 132.72 99.67 132.08
  Q 99.65 132.03 99.67 131.98
  Q 99.78 131.72 100.09 131.76
  Q 100.26 131.79 100.25 131.95
  Q 100.16 132.79 100.42 131.98
  Q 100.57 131.52 101.28 131.49
  Z"
/>
<path fill="#4fa0c8" d="
  M 79.94 134.19
  Q 75.11 142.92 67.26 150.23
  Q 52.58 163.89 33.36 161.15
  Q 31.43 160.87 29.56 160.16
  C 27.89 159.52 26.23 159.34 24.52 158.73
  Q 21.26 157.56 17.91 157.43
  Q 16.82 157.11 16.30 156.07
  Q 16.06 155.60 16.58 155.51
  Q 21.66 154.67 29.33 152.81
  Q 44.95 149.01 55.55 138.05
  Q 58.73 137.42 62.01 137.63
  Q 62.25 137.65 62.43 137.74
  Q 62.55 137.80 62.58 137.93
  Q 62.65 138.16 62.88 138.12
  Q 67.11 137.51 71.76 137.08
  Q 73.82 136.88 76.13 135.14
  Q 77.43 134.15 79.94 134.19
  Z"
/>
</svg>
